<mxfile host="app.diagrams.net" modified="2023-10-22T07:10:50.151Z" agent="Mozilla/5.0 (Windows NT 10.0; Win64; x64) AppleWebKit/537.36 (KHTML, like Gecko) Chrome/119.0.0.0 Safari/537.36 Edg/119.0.0.0" version="21.8.2" etag="GiJTrqSB6K42Rctek3zU" type="github">
  <diagram name="Page-1" id="e3y7VzX0Kmga6n31kOdh">
    <mxGraphModel>
      <root>
        <mxCell id="0" />
        <mxCell id="1" parent="0" />
        <mxCell id="2" value="Start" style="whiteSpace=wrap;strokeWidth=2;" vertex="1" parent="1">
          <mxGeometry y="462" width="51" height="34" as="geometry" />
        </mxCell>
        <mxCell id="3" value="Optimize Images" style="rounded=1;absoluteArcSize=1;arcSize=14;whiteSpace=wrap;strokeWidth=2;" vertex="1" parent="1">
          <mxGeometry x="272" y="126" width="134" height="34" as="geometry" />
        </mxCell>
        <mxCell id="4" value="Use CSS Sprites" style="rounded=1;absoluteArcSize=1;arcSize=14;whiteSpace=wrap;strokeWidth=2;" vertex="1" parent="1">
          <mxGeometry x="277" y="462" width="125" height="34" as="geometry" />
        </mxCell>
        <mxCell id="5" value="Turn Off Unnecessary Animations" style="rounded=1;absoluteArcSize=1;arcSize=14;whiteSpace=wrap;strokeWidth=2;" vertex="1" parent="1">
          <mxGeometry x="213" y="798" width="251" height="34" as="geometry" />
        </mxCell>
        <mxCell id="6" value="Compress Images" style="rounded=1;absoluteArcSize=1;arcSize=14;whiteSpace=wrap;strokeWidth=2;" vertex="1" parent="1">
          <mxGeometry x="807" y="42" width="138" height="34" as="geometry" />
        </mxCell>
        <mxCell id="7" value="Reduce Image Size" style="rounded=1;absoluteArcSize=1;arcSize=14;whiteSpace=wrap;strokeWidth=2;" vertex="1" parent="1">
          <mxGeometry x="802" y="210" width="148" height="34" as="geometry" />
        </mxCell>
        <mxCell id="8" value="Combine Background Images" style="rounded=1;absoluteArcSize=1;arcSize=14;whiteSpace=wrap;strokeWidth=2;" vertex="1" parent="1">
          <mxGeometry x="766" y="378" width="220" height="34" as="geometry" />
        </mxCell>
        <mxCell id="9" value="Eliminate Unnecessary Images" style="rounded=1;absoluteArcSize=1;arcSize=14;whiteSpace=wrap;strokeWidth=2;" vertex="1" parent="1">
          <mxGeometry x="760" y="546" width="231" height="34" as="geometry" />
        </mxCell>
        <mxCell id="10" value="Remove Auto-Playing Videos" style="rounded=1;absoluteArcSize=1;arcSize=14;whiteSpace=wrap;strokeWidth=2;" vertex="1" parent="1">
          <mxGeometry x="767" y="714" width="217" height="34" as="geometry" />
        </mxCell>
        <mxCell id="11" value="Avoid Heavy JavaScript Libraries" style="rounded=1;absoluteArcSize=1;arcSize=14;whiteSpace=wrap;strokeWidth=2;" vertex="1" parent="1">
          <mxGeometry x="751" y="882" width="249" height="34" as="geometry" />
        </mxCell>
        <mxCell id="12" value="Use Lossless Compression" style="rounded=1;absoluteArcSize=1;arcSize=14;whiteSpace=wrap;strokeWidth=2;" vertex="1" parent="1">
          <mxGeometry x="1299" width="197" height="34" as="geometry" />
        </mxCell>
        <mxCell id="13" value="Use Image Optimization Tools" style="rounded=1;absoluteArcSize=1;arcSize=14;whiteSpace=wrap;strokeWidth=2;" vertex="1" parent="1">
          <mxGeometry x="1284" y="84" width="227" height="34" as="geometry" />
        </mxCell>
        <mxCell id="14" value="Reduce Image Dimensions" style="rounded=1;absoluteArcSize=1;arcSize=14;whiteSpace=wrap;strokeWidth=2;" vertex="1" parent="1">
          <mxGeometry x="1297" y="168" width="200" height="34" as="geometry" />
        </mxCell>
        <mxCell id="15" value="Use SVGs" style="rounded=1;absoluteArcSize=1;arcSize=14;whiteSpace=wrap;strokeWidth=2;" vertex="1" parent="1">
          <mxGeometry x="1357" y="252" width="80" height="34" as="geometry" />
        </mxCell>
        <mxCell id="16" value="Merge Multiple Images" style="rounded=1;absoluteArcSize=1;arcSize=14;whiteSpace=wrap;strokeWidth=2;" vertex="1" parent="1">
          <mxGeometry x="1309" y="336" width="177" height="34" as="geometry" />
        </mxCell>
        <mxCell id="17" value="Use Data URLs" style="rounded=1;absoluteArcSize=1;arcSize=14;whiteSpace=wrap;strokeWidth=2;" vertex="1" parent="1">
          <mxGeometry x="1338" y="420" width="118" height="34" as="geometry" />
        </mxCell>
        <mxCell id="18" value="Delete Unused Images" style="rounded=1;absoluteArcSize=1;arcSize=14;whiteSpace=wrap;strokeWidth=2;" vertex="1" parent="1">
          <mxGeometry x="1310" y="504" width="174" height="34" as="geometry" />
        </mxCell>
        <mxCell id="19" value="Remove Background Images" style="rounded=1;absoluteArcSize=1;arcSize=14;whiteSpace=wrap;strokeWidth=2;" vertex="1" parent="1">
          <mxGeometry x="1291" y="588" width="213" height="34" as="geometry" />
        </mxCell>
        <mxCell id="20" value="Use Click-to-Play Videos" style="rounded=1;absoluteArcSize=1;arcSize=14;whiteSpace=wrap;strokeWidth=2;" vertex="1" parent="1">
          <mxGeometry x="1303" y="672" width="189" height="34" as="geometry" />
        </mxCell>
        <mxCell id="21" value="Disable Video Autoplay" style="rounded=1;absoluteArcSize=1;arcSize=14;whiteSpace=wrap;strokeWidth=2;" vertex="1" parent="1">
          <mxGeometry x="1308" y="756" width="179" height="34" as="geometry" />
        </mxCell>
        <mxCell id="22" value="Use Lightweight Alternatives" style="rounded=1;absoluteArcSize=1;arcSize=14;whiteSpace=wrap;strokeWidth=2;" vertex="1" parent="1">
          <mxGeometry x="1287" y="840" width="220" height="34" as="geometry" />
        </mxCell>
        <mxCell id="23" value="Implement Lazy Loading" style="rounded=1;absoluteArcSize=1;arcSize=14;whiteSpace=wrap;strokeWidth=2;" vertex="1" parent="1">
          <mxGeometry x="1303" y="924" width="189" height="34" as="geometry" />
        </mxCell>
        <mxCell id="24" value="Slow Loading" style="curved=1;startArrow=none;endArrow=block;exitX=0.6024930154353407;exitY=0;entryX=-0.0017782182835820895;entryY=0.5;" edge="1" parent="1" source="2" target="3">
          <mxGeometry relative="1" as="geometry">
            <Array as="points">
              <mxPoint x="132" y="143" />
            </Array>
          </mxGeometry>
        </mxCell>
        <mxCell id="25" value="Slow Rendering" style="curved=1;startArrow=none;endArrow=block;exitX=0.9934129901960784;exitY=0.5;entryX=-0.00253125;entryY=0.5;" edge="1" parent="1" source="2" target="4">
          <mxGeometry relative="1" as="geometry">
            <Array as="points" />
          </mxGeometry>
        </mxCell>
        <mxCell id="26" value="High CPU Usage" style="curved=1;startArrow=none;endArrow=block;exitX=0.6024930154353407;exitY=1;entryX=0.0010582669322709163;entryY=0.5;" edge="1" parent="1" source="2" target="5">
          <mxGeometry relative="1" as="geometry">
            <Array as="points">
              <mxPoint x="132" y="815" />
            </Array>
          </mxGeometry>
        </mxCell>
        <mxCell id="27" value="Optimize Images" style="curved=1;startArrow=none;endArrow=block;exitX=0.9062659637082445;exitY=0;entryX=-0.002349411231884058;entryY=0.5;" edge="1" parent="1" source="3" target="6">
          <mxGeometry relative="1" as="geometry">
            <Array as="points">
              <mxPoint x="608" y="59" />
            </Array>
          </mxGeometry>
        </mxCell>
        <mxCell id="28" value="Optimize Images" style="curved=1;startArrow=none;endArrow=block;exitX=0.9062659637082445;exitY=1;entryX=-0.002586570945945946;entryY=0.5;" edge="1" parent="1" source="3" target="7">
          <mxGeometry relative="1" as="geometry">
            <Array as="points">
              <mxPoint x="608" y="227" />
            </Array>
          </mxGeometry>
        </mxCell>
        <mxCell id="29" value="Use CSS Sprites" style="curved=1;startArrow=none;endArrow=block;exitX=0.9315171130952381;exitY=0;entryX=-0.0006569602272727273;entryY=0.5;" edge="1" parent="1" source="4" target="8">
          <mxGeometry relative="1" as="geometry">
            <Array as="points">
              <mxPoint x="608" y="395" />
            </Array>
          </mxGeometry>
        </mxCell>
        <mxCell id="30" value="Use CSS Sprites" style="curved=1;startArrow=none;endArrow=block;exitX=0.9315171130952381;exitY=1;entryX=0.0003551136363636364;entryY=0.5;" edge="1" parent="1" source="4" target="9">
          <mxGeometry relative="1" as="geometry">
            <Array as="points">
              <mxPoint x="608" y="563" />
            </Array>
          </mxGeometry>
        </mxCell>
        <mxCell id="31" value="Turn Off Unnecessary Animations" style="curved=1;startArrow=none;endArrow=block;exitX=0.7188830244498198;exitY=0;entryX=0.001350086405529954;entryY=0.5;" edge="1" parent="1" source="5" target="10">
          <mxGeometry relative="1" as="geometry">
            <Array as="points">
              <mxPoint x="608" y="731" />
            </Array>
          </mxGeometry>
        </mxCell>
        <mxCell id="32" value="Turn Off Unnecessary Animations" style="curved=1;startArrow=none;endArrow=block;exitX=0.7188830244498198;exitY=1;entryX=0.0008785140562248996;entryY=0.5;" edge="1" parent="1" source="5" target="11">
          <mxGeometry relative="1" as="geometry">
            <Array as="points">
              <mxPoint x="608" y="899" />
            </Array>
          </mxGeometry>
        </mxCell>
        <mxCell id="33" value="Compress Images" style="curved=1;startArrow=none;endArrow=block;exitX=0.9974241394927537;exitY=0.18009950849565867;entryX=-0.0004362309644670051;entryY=0.5;" edge="1" parent="1" source="6" target="12">
          <mxGeometry relative="1" as="geometry">
            <Array as="points">
              <mxPoint x="1142" y="17" />
            </Array>
          </mxGeometry>
        </mxCell>
        <mxCell id="34" value="Compress Images" style="curved=1;startArrow=none;endArrow=block;exitX=0.9974241394927537;exitY=0.8199004915043413;entryX=-0.00006883259911894274;entryY=0.5;" edge="1" parent="1" source="6" target="13">
          <mxGeometry relative="1" as="geometry">
            <Array as="points">
              <mxPoint x="1142" y="101" />
            </Array>
          </mxGeometry>
        </mxCell>
        <mxCell id="35" value="Reduce Image Size" style="curved=1;startArrow=none;endArrow=block;exitX=0.9979940878378378;exitY=0.156641346746048;entryX=0.00189453125;entryY=0.5;" edge="1" parent="1" source="7" target="14">
          <mxGeometry relative="1" as="geometry">
            <Array as="points">
              <mxPoint x="1142" y="185" />
            </Array>
          </mxGeometry>
        </mxCell>
        <mxCell id="36" value="Reduce Image Size" style="curved=1;startArrow=none;endArrow=block;exitX=0.9979940878378378;exitY=0.843358653253952;entryX=0.00107421875;entryY=0.5;" edge="1" parent="1" source="7" target="15">
          <mxGeometry relative="1" as="geometry">
            <Array as="points">
              <mxPoint x="1142" y="269" />
            </Array>
          </mxGeometry>
        </mxCell>
        <mxCell id="37" value="Combine Background Images" style="curved=1;startArrow=none;endArrow=block;exitX=0.988553503787879;exitY=0;entryX=-0.0005296610169491525;entryY=0.5;" edge="1" parent="1" source="8" target="16">
          <mxGeometry relative="1" as="geometry">
            <Array as="points">
              <mxPoint x="1142" y="353" />
            </Array>
          </mxGeometry>
        </mxCell>
        <mxCell id="38" value="Combine Background Images" style="curved=1;startArrow=none;endArrow=block;exitX=0.988553503787879;exitY=1;entryX=0.002151747881355932;entryY=0.5;" edge="1" parent="1" source="8" target="17">
          <mxGeometry relative="1" as="geometry">
            <Array as="points">
              <mxPoint x="1142" y="437" />
            </Array>
          </mxGeometry>
        </mxCell>
        <mxCell id="39" value="Eliminate Unnecessary Images" style="curved=1;startArrow=none;endArrow=block;exitX=0.9674535533910535;exitY=0;entryX=0.002626616379310345;entryY=0.5;" edge="1" parent="1" source="9" target="18">
          <mxGeometry relative="1" as="geometry">
            <Array as="points">
              <mxPoint x="1142" y="521" />
            </Array>
          </mxGeometry>
        </mxCell>
        <mxCell id="40" value="Eliminate Unnecessary Images" style="curved=1;startArrow=none;endArrow=block;exitX=0.9674535533910535;exitY=1;entryX=-0.0013204225352112676;entryY=0.5;" edge="1" parent="1" source="9" target="19">
          <mxGeometry relative="1" as="geometry">
            <Array as="points">
              <mxPoint x="1142" y="605" />
            </Array>
          </mxGeometry>
        </mxCell>
        <mxCell id="41" value="Remove Auto-Playing Videos" style="curved=1;startArrow=none;endArrow=block;exitX=0.9976118471582183;exitY=0;entryX=-0.000248015873015873;entryY=0.5;" edge="1" parent="1" source="10" target="20">
          <mxGeometry relative="1" as="geometry">
            <Array as="points">
              <mxPoint x="1142" y="689" />
            </Array>
          </mxGeometry>
        </mxCell>
        <mxCell id="42" value="Remove Auto-Playing Videos" style="curved=1;startArrow=none;endArrow=block;exitX=0.9976118471582183;exitY=1;entryX=-0.0026187150837988825;entryY=0.5;" edge="1" parent="1" source="10" target="21">
          <mxGeometry relative="1" as="geometry">
            <Array as="points">
              <mxPoint x="1142" y="773" />
            </Array>
          </mxGeometry>
        </mxCell>
        <mxCell id="43" value="Avoid Heavy JavaScript Libraries" style="curved=1;startArrow=none;endArrow=block;exitX=0.9336617302543508;exitY=0;entryX=-0.000017755681818181817;entryY=0.5;" edge="1" parent="1" source="11" target="22">
          <mxGeometry relative="1" as="geometry">
            <Array as="points">
              <mxPoint x="1142" y="857" />
            </Array>
          </mxGeometry>
        </mxCell>
        <mxCell id="44" value="Avoid Heavy JavaScript Libraries" style="curved=1;startArrow=none;endArrow=block;exitX=0.9336617302543508;exitY=1;entryX=-0.0018187830687830687;entryY=0.5;" edge="1" parent="1" source="11" target="23">
          <mxGeometry relative="1" as="geometry">
            <Array as="points">
              <mxPoint x="1142" y="941" />
            </Array>
          </mxGeometry>
        </mxCell>
      </root>
    </mxGraphModel>
  </diagram>
</mxfile>
